<svg width="149" height="28" viewBox="0 0 149 28" fill="none" xmlns="http://www.w3.org/2000/svg">
<path d="M9.91671 7L2.33337 3.5V21L9.91671 24.5M9.91671 7L18.0834 3.5M9.91671 7V24.5M9.91671 7L6.12504 5.25M9.91671 24.5L18.0834 21M9.91671 24.5L6.12504 22.75M18.0834 21L25.6667 24.5V7L18.0834 3.5M18.0834 21V3.5M18.0834 21L21.875 22.75M18.0834 3.5L21.875 5.25" stroke="#171717" stroke-width="2.25" stroke-linecap="square"/>
<path d="M36 21.3264V7.14453H41.3182C42.4077 7.14453 43.3217 7.33381 44.0604 7.71236C44.8036 8.09091 45.3645 8.6218 45.7431 9.30504C46.1262 9.98366 46.3178 10.7754 46.3178 11.6802C46.3178 12.5897 46.1239 13.3791 45.7362 14.0485C45.353 14.7132 44.7875 15.228 44.0396 15.5927C43.2917 15.9528 42.373 16.1328 41.2836 16.1328H37.4957V14H40.9373C41.5744 14 42.0961 13.9123 42.5023 13.7369C42.9086 13.5568 43.2086 13.296 43.4025 12.9544C43.601 12.6081 43.7003 12.1834 43.7003 11.6802C43.7003 11.177 43.601 10.7477 43.4025 10.3922C43.204 10.0321 42.9016 9.75977 42.4954 9.57511C42.0891 9.38583 41.5652 9.29119 40.9235 9.29119H38.5691V21.3264H36ZM43.3263 14.9002L46.8372 21.3264H43.9703L40.5218 14.9002H43.3263Z" fill="#171717"/>
<path d="M52.669 21.5341C51.6303 21.5341 50.7301 21.3056 49.9684 20.8485C49.2067 20.3915 48.6158 19.7521 48.1957 18.9304C47.7802 18.1087 47.5724 17.1484 47.5724 16.0497C47.5724 14.951 47.7802 13.9885 48.1957 13.1621C48.6158 12.3358 49.2067 11.6941 49.9684 11.237C50.7301 10.78 51.6303 10.5515 52.669 10.5515C53.7077 10.5515 54.608 10.78 55.3697 11.237C56.1314 11.6941 56.72 12.3358 57.1355 13.1621C57.5556 13.9885 57.7656 14.951 57.7656 16.0497C57.7656 17.1484 57.5556 18.1087 57.1355 18.9304C56.72 19.7521 56.1314 20.3915 55.3697 20.8485C54.608 21.3056 53.7077 21.5341 52.669 21.5341ZM52.6829 19.5259C53.2461 19.5259 53.717 19.3713 54.0955 19.062C54.4741 18.748 54.7557 18.3279 54.9403 17.8017C55.1296 17.2754 55.2243 16.6891 55.2243 16.0428C55.2243 15.3919 55.1296 14.8033 54.9403 14.277C54.7557 13.7461 54.4741 13.3237 54.0955 13.0098C53.717 12.6958 53.2461 12.5389 52.6829 12.5389C52.1058 12.5389 51.6257 12.6958 51.2425 13.0098C50.864 13.3237 50.5801 13.7461 50.3908 14.277C50.2061 14.8033 50.1138 15.3919 50.1138 16.0428C50.1138 16.6891 50.2061 17.2754 50.3908 17.8017C50.5801 18.3279 50.864 18.748 51.2425 19.062C51.6257 19.3713 52.1058 19.5259 52.6829 19.5259Z" fill="#171717"/>
<path d="M64.8145 10.69V12.6289H58.7V10.69H64.8145ZM60.2096 8.14169H62.7163V18.1271C62.7163 18.4641 62.7671 18.7227 62.8687 18.9027C62.9748 19.0781 63.1133 19.1982 63.2841 19.2628C63.455 19.3274 63.6442 19.3597 63.852 19.3597C64.0089 19.3597 64.152 19.3482 64.2813 19.3251C64.4152 19.302 64.5167 19.2812 64.586 19.2628L65.0084 21.2225C64.8745 21.2686 64.6829 21.3194 64.4336 21.3748C64.189 21.4302 63.8889 21.4625 63.5334 21.4718C62.9056 21.4902 62.3401 21.3956 61.8369 21.1879C61.3337 20.9755 60.9344 20.6477 60.6389 20.2045C60.3481 19.7614 60.205 19.2074 60.2096 18.5426V8.14169Z" fill="#171717"/>
<path d="M71.1155 21.5341C70.0491 21.5341 69.1281 21.3125 68.3525 20.8693C67.5816 20.4215 66.9884 19.7891 66.5729 18.9719C66.1574 18.1502 65.9497 17.1831 65.9497 16.0705C65.9497 14.9764 66.1574 14.0162 66.5729 13.1898C66.993 12.3588 67.5793 11.7125 68.3318 11.2509C69.0843 10.7846 69.9683 10.5515 70.9839 10.5515C71.6395 10.5515 72.2581 10.6577 72.8398 10.87C73.4261 11.0778 73.9431 11.4009 74.3909 11.8395C74.8433 12.2781 75.1988 12.8366 75.4573 13.5153C75.7158 14.1893 75.8451 14.9925 75.8451 15.9251V16.6937H67.1269V15.0041H73.4422C73.4376 14.524 73.3337 14.0969 73.1306 13.723C72.9275 13.3445 72.6436 13.0467 72.2789 12.8297C71.9188 12.6127 71.4987 12.5043 71.0186 12.5043C70.5061 12.5043 70.056 12.6289 69.6682 12.8782C69.2805 13.1229 68.9781 13.446 68.7611 13.8477C68.5487 14.2447 68.4403 14.6809 68.4356 15.1564V16.6314C68.4356 17.25 68.5488 17.7809 68.775 18.2241C69.0012 18.6626 69.3174 18.9996 69.7236 19.2351C70.1299 19.4659 70.6054 19.5813 71.1501 19.5813C71.5148 19.5813 71.8449 19.5305 72.1404 19.429C72.4358 19.3228 72.692 19.1681 72.909 18.965C73.126 18.7619 73.2899 18.5103 73.4007 18.2102L75.7412 18.4734C75.5935 19.092 75.3119 19.6321 74.8964 20.0938C74.4855 20.5508 73.9593 20.9062 73.3176 21.1602C72.6759 21.4094 71.9419 21.5341 71.1155 21.5341Z" fill="#171717"/>
<path d="M77.5758 21.3264V10.69H80.0825V21.3264H77.5758ZM78.8361 9.1804C78.4391 9.1804 78.0975 9.04883 77.8112 8.78569C77.525 8.51793 77.3819 8.19709 77.3819 7.82315C77.3819 7.4446 77.525 7.12376 77.8112 6.86062C78.0975 6.59286 78.4391 6.45898 78.8361 6.45898C79.2377 6.45898 79.5793 6.59286 79.8609 6.86062C80.1472 7.12376 80.2903 7.4446 80.2903 7.82315C80.2903 8.19709 80.1472 8.51793 79.8609 8.78569C79.5793 9.04883 79.2377 9.1804 78.8361 9.1804Z" fill="#171717"/>
<path d="M82.2703 21.3264V10.69H84.7008V12.4627H84.8116C85.0055 11.8487 85.3379 11.3755 85.8088 11.0431C86.2843 10.7061 86.8267 10.5376 87.4361 10.5376C87.5746 10.5376 87.7292 10.5446 87.9001 10.5584C88.0755 10.5676 88.2209 10.5838 88.3363 10.6069V12.9128C88.2301 12.8759 88.0616 12.8436 87.8308 12.8159C87.6046 12.7836 87.3853 12.7674 87.173 12.7674C86.7159 12.7674 86.3051 12.8667 85.9404 13.0652C85.5803 13.2591 85.2964 13.5291 85.0886 13.8754C84.8809 14.2216 84.777 14.6209 84.777 15.0733V21.3264H82.2703Z" fill="#171717"/>
<path d="M89.6117 21.3264V10.69H92.1185V21.3264H89.6117ZM90.872 9.1804C90.475 9.1804 90.1334 9.04883 89.8471 8.78569C89.5609 8.51793 89.4178 8.19709 89.4178 7.82315C89.4178 7.4446 89.5609 7.12376 89.8471 6.86062C90.1334 6.59286 90.475 6.45898 90.872 6.45898C91.2736 6.45898 91.6153 6.59286 91.8969 6.86062C92.1831 7.12376 92.3262 7.4446 92.3262 7.82315C92.3262 8.19709 92.1831 8.51793 91.8969 8.78569C91.6153 9.04883 91.2736 9.1804 90.872 9.1804Z" fill="#171717"/>
<path d="M94.1677 21.3264V19.7337L99.6521 12.8574V12.7674H94.3477V10.69H102.72V12.4004L97.4985 19.1589V19.2489H102.9V21.3264H94.1677Z" fill="#171717"/>
<path d="M107.927 21.541C107.253 21.541 106.646 21.421 106.105 21.1809C105.57 20.9363 105.145 20.5762 104.831 20.1007C104.522 19.6252 104.367 19.0389 104.367 18.3418C104.367 17.7417 104.478 17.2454 104.7 16.853C104.921 16.4606 105.224 16.1467 105.607 15.9112C105.99 15.6758 106.422 15.498 106.902 15.378C107.386 15.2534 107.887 15.1634 108.404 15.108C109.028 15.0433 109.533 14.9856 109.921 14.9348C110.309 14.8794 110.59 14.7963 110.766 14.6855C110.946 14.5701 111.036 14.3924 111.036 14.1523V14.1108C111.036 13.5891 110.881 13.1852 110.572 12.899C110.263 12.6127 109.817 12.4696 109.235 12.4696C108.621 12.4696 108.134 12.6035 107.774 12.8713C107.419 13.139 107.179 13.4553 107.054 13.82L104.714 13.4876C104.898 12.8413 105.203 12.3011 105.628 11.8672C106.052 11.4286 106.572 11.1009 107.186 10.8839C107.8 10.6623 108.478 10.5515 109.222 10.5515C109.734 10.5515 110.244 10.6115 110.752 10.7315C111.26 10.8516 111.724 11.0501 112.144 11.3271C112.564 11.5994 112.901 11.9711 113.155 12.4419C113.413 12.9128 113.543 13.5014 113.543 14.2077V21.3264H111.133V19.8652H111.05C110.897 20.1607 110.683 20.4377 110.406 20.6962C110.133 20.9501 109.789 21.1555 109.374 21.3125C108.963 21.4648 108.481 21.541 107.927 21.541ZM108.578 19.699C109.081 19.699 109.517 19.5998 109.886 19.4013C110.256 19.1982 110.54 18.9304 110.738 18.598C110.941 18.2656 111.043 17.9032 111.043 17.5108V16.2575C110.964 16.3221 110.83 16.3821 110.641 16.4375C110.456 16.4929 110.249 16.5414 110.018 16.5829C109.787 16.6245 109.559 16.6614 109.332 16.6937C109.106 16.726 108.91 16.7537 108.744 16.7768C108.37 16.8276 108.035 16.9107 107.74 17.0261C107.444 17.1415 107.211 17.3031 107.04 17.5108C106.869 17.714 106.784 17.9771 106.784 18.3002C106.784 18.7619 106.953 19.1104 107.29 19.3459C107.627 19.5813 108.056 19.699 108.578 19.699Z" fill="#171717"/>
<path d="M118.18 15.0941V21.3264H115.673V10.69H118.069V12.4973H118.194C118.438 11.9018 118.829 11.4286 119.364 11.0778C119.904 10.7269 120.571 10.5515 121.365 10.5515C122.099 10.5515 122.739 10.7085 123.283 11.0224C123.833 11.3363 124.257 11.791 124.558 12.3865C124.862 12.9821 125.012 13.7045 125.008 14.554V21.3264H122.501V14.9418C122.501 14.2308 122.316 13.6745 121.947 13.2729C121.582 12.8713 121.077 12.6705 120.43 12.6705C119.992 12.6705 119.602 12.7674 119.26 12.9613C118.923 13.1506 118.658 13.4252 118.464 13.7853C118.275 14.1454 118.18 14.5817 118.18 15.0941Z" fill="#171717"/>
<path d="M131.113 21.5133C130.277 21.5133 129.53 21.2987 128.869 20.8693C128.209 20.44 127.688 19.8168 127.304 18.9996C126.921 18.1825 126.73 17.19 126.73 16.022C126.73 14.8402 126.924 13.843 127.311 13.0305C127.704 12.2134 128.232 11.5971 128.897 11.1816C129.562 10.7615 130.303 10.5515 131.12 10.5515C131.743 10.5515 132.256 10.6577 132.657 10.87C133.059 11.0778 133.377 11.3294 133.613 11.6248C133.848 11.9157 134.031 12.1903 134.16 12.4489H134.264V7.14453H136.777V21.3264H134.312V19.6506H134.16C134.031 19.9091 133.844 20.1838 133.599 20.4746C133.354 20.7608 133.031 21.0055 132.63 21.2086C132.228 21.4118 131.722 21.5133 131.113 21.5133ZM131.812 19.4567C132.343 19.4567 132.796 19.3136 133.17 19.0273C133.544 18.7365 133.828 18.3326 134.021 17.8155C134.215 17.2985 134.312 16.696 134.312 16.0082C134.312 15.3203 134.215 14.7225 134.021 14.2147C133.832 13.7069 133.551 13.3121 133.177 13.0305C132.807 12.7489 132.353 12.6081 131.812 12.6081C131.254 12.6081 130.788 12.7536 130.414 13.0444C130.04 13.3352 129.758 13.7369 129.569 14.2493C129.38 14.7617 129.285 15.348 129.285 16.0082C129.285 16.6729 129.38 17.2662 129.569 17.7878C129.763 18.3049 130.047 18.7134 130.421 19.0135C130.799 19.3089 131.263 19.4567 131.812 19.4567Z" fill="#171717"/>
<path d="M143.698 21.5341C142.66 21.5341 141.759 21.3056 140.998 20.8485C140.236 20.3915 139.645 19.7521 139.225 18.9304C138.809 18.1087 138.602 17.1484 138.602 16.0497C138.602 14.951 138.809 13.9885 139.225 13.1621C139.645 12.3358 140.236 11.6941 140.998 11.237C141.759 10.78 142.66 10.5515 143.698 10.5515C144.737 10.5515 145.637 10.78 146.399 11.237C147.161 11.6941 147.749 12.3358 148.165 13.1621C148.585 13.9885 148.795 14.951 148.795 16.0497C148.795 17.1484 148.585 18.1087 148.165 18.9304C147.749 19.7521 147.161 20.3915 146.399 20.8485C145.637 21.3056 144.737 21.5341 143.698 21.5341ZM143.712 19.5259C144.275 19.5259 144.746 19.3713 145.125 19.062C145.503 18.748 145.785 18.3279 145.97 17.8017C146.159 17.2754 146.253 16.6891 146.253 16.0428C146.253 15.3919 146.159 14.8033 145.97 14.277C145.785 13.7461 145.503 13.3237 145.125 13.0098C144.746 12.6958 144.275 12.5389 143.712 12.5389C143.135 12.5389 142.655 12.6958 142.272 13.0098C141.893 13.3237 141.609 13.7461 141.42 14.277C141.235 14.8033 141.143 15.3919 141.143 16.0428C141.143 16.6891 141.235 17.2754 141.42 17.8017C141.609 18.3279 141.893 18.748 142.272 19.062C142.655 19.3713 143.135 19.5259 143.712 19.5259Z" fill="#171717"/>
</svg>
